<svg xmlns="http://www.w3.org/2000/svg" width="199" height="146" fill="none" viewBox="0 0 199 146"><mask id="mask0_415_79" width="100" height="100" x="51" y="21" maskUnits="userSpaceOnUse" style="mask-type:alpha"><circle cx="101.293" cy="70.71" r="49.5" fill="#C4C4C4" transform="rotate(-45 101.293 70.7105)"/></mask><g mask="url(#mask0_415_79)"><circle cx="118.365" cy="54.548" r="73" fill="#8F5FFF" transform="rotate(-45 118.365 54.548)"/><ellipse cx="154.427" cy="17.072" fill="#fff" rx="73" ry="73" transform="rotate(-45 154.427 17.0716)"/><path fill="#8759F2" d="M138.07 198.464C137.819 197.456 136.224 195.972 133.284 194.014C132.488 193.397 131.353 192.559 129.885 191.495C128.415 190.431 127.081 189.451 125.886 188.555C124.687 187.659 123.565 186.792 122.516 185.953C122.348 185.785 121.824 185.296 120.942 184.483C120.059 183.671 119.315 183.069 118.705 182.677C118.097 182.286 117.498 182.09 116.91 182.09C116.07 182.09 115.022 182.888 113.763 184.483C112.504 186.079 111.349 187.813 110.3 189.69C109.25 191.566 108.137 193.3 106.963 194.896C105.787 196.492 104.82 197.289 104.066 197.289C103.687 197.289 103.214 197.149 102.648 196.871C102.082 196.591 101.651 196.351 101.356 196.158C101.063 195.961 100.56 195.57 99.8458 194.98C99.1303 194.392 98.7323 194.07 98.6485 194.014C92.8968 189.759 87.9638 184.888 83.8488 179.404C79.7351 173.916 76.0818 167.34 72.8911 159.67C72.8491 159.558 72.6072 159.026 72.1667 158.074C71.7255 157.122 71.4314 156.452 71.2845 156.059C71.1376 155.667 70.9592 155.093 70.7496 154.337C70.5401 153.582 70.4348 152.952 70.4348 152.448C70.4348 151.441 71.0333 150.153 72.23 148.585C73.4264 147.018 74.7283 145.534 76.1343 144.136C77.5414 142.737 78.842 141.197 80.0389 139.519C81.2353 137.839 81.8336 136.44 81.8336 135.321C81.8336 134.537 81.6866 133.739 81.393 132.927C81.0992 132.114 80.6479 131.122 80.0389 129.946C79.4296 128.77 79.0623 128.071 78.9362 127.846C78.3071 126.448 77.657 124.95 76.9844 123.355C76.3119 121.759 75.5778 119.981 74.7797 118.022C73.9823 116.064 73.353 114.552 72.8906 113.488C71.422 109.571 70.3096 107.442 69.5536 107.108C69.2596 106.94 68.8184 106.855 68.2312 106.855C67.097 106.855 65.6173 107.134 63.7911 107.695C61.9642 108.255 60.5266 108.842 59.4769 109.458C57.3776 110.633 55.1525 114.048 52.8011 119.701C50.6599 124.962 45.6277 135.452 45.6277 140.601C45.6277 142.112 45.7011 143.581 45.848 145.01C45.995 146.437 46.2575 148.047 46.6358 149.839C47.0134 151.63 47.318 152.96 47.5483 153.827C47.7788 154.694 48.2092 156.247 48.8392 158.487C49.4683 160.726 49.8466 162.097 49.9725 162.601C51.4419 168.088 53.1843 172.985 55.1993 177.296C58.5147 184.461 63.0391 191.866 68.7699 199.508C74.5009 207.149 80.0534 213.181 85.4278 217.603C88.6604 220.29 92.3351 222.613 96.4493 224.573C96.8273 224.74 97.8555 225.244 99.5344 226.085C101.214 226.925 102.379 227.499 103.03 227.807C103.68 228.115 104.678 228.521 106.02 229.026C107.366 229.53 108.572 229.88 109.642 230.077C110.713 230.271 111.816 230.37 112.949 230.37C116.811 230.37 124.678 223.66 128.624 220.805C132.864 217.671 135.424 214.704 136.306 211.903C136.769 210.504 137.209 208.587 137.628 206.151C138.05 203.717 138.259 201.744 138.259 200.232C138.26 199.446 138.197 198.859 138.07 198.464Z"/><path fill="#8759F2" d="M62.3785 79.2186L38.6904 52.7021L15.3559 67.5514C16.1808 82.7542 18.5378 114.574 21.3663 120.231C24.1947 125.888 64.9712 147.101 85.0059 157C103.037 145.569 139.524 122.564 141.221 121.999C142.918 121.433 133.914 115.635 129.2 112.806L104.451 118.463L62.3785 79.2186Z"/></g><mask id="mask1_415_79" width="100" height="100" x="51" y="21" maskUnits="userSpaceOnUse" style="mask-type:alpha"><circle cx="101.293" cy="70.71" r="49.5" fill="#C4C4C4" transform="rotate(-45 101.293 70.7105)"/></mask><g mask="url(#mask1_415_79)"><rect width="122" height="2" x="26.339" y="86.974" fill="#fff" transform="rotate(-45 26.3394 86.9739)"/><rect width="122" height="2" x="32.703" y="93.338" fill="#fff" transform="rotate(-45 32.7034 93.3379)"/><rect width="122" height="2" x="38.36" y="98.995" fill="#fff" transform="rotate(-45 38.3601 98.9948)"/><rect width="122" height="2" x="44.724" y="105.359" fill="#fff" transform="rotate(-45 44.7241 105.359)"/><rect width="122" height="2" x="50.381" y="111.016" fill="#fff" transform="rotate(-45 50.3809 111.016)"/><rect width="122" height="2" x="56.745" y="117.38" fill="#fff" transform="rotate(-45 56.7449 117.38)"/><rect width="122" height="2" x="62.402" y="123.036" fill="#fff" transform="rotate(-45 62.4019 123.036)"/><rect width="122" height="2" x="68.766" y="129.4" fill="#fff" transform="rotate(-45 68.7656 129.4)"/><rect width="122" height="2" x="74.423" y="135.057" fill="#fff" transform="rotate(-45 74.4226 135.057)"/><rect width="122" height="2" x="80.787" y="141.421" fill="#fff" transform="rotate(-45 80.7866 141.421)"/><rect width="122" height="2" x="86.443" y="147.078" fill="#fff" transform="rotate(-45 86.4434 147.078)"/></g><mask id="mask2_415_79" width="100" height="100" x="52" y="20" maskUnits="userSpaceOnUse" style="mask-type:alpha"><circle cx="102" cy="70.004" r="49.5" fill="#C4C4C4" transform="rotate(-45 102 70.0036)"/></mask><g mask="url(#mask2_415_79)"><rect width="122" height="2" x="22.804" y="82.024" fill="#8759F2" transform="rotate(-45 22.8042 82.0244)"/><rect width="122" height="2" x="28.461" y="87.681" fill="#8759F2" transform="rotate(-45 28.4609 87.6812)"/><rect width="122" height="2" x="34.825" y="94.045" fill="#8759F2" transform="rotate(-45 34.825 94.0452)"/><rect width="122" height="2" x="40.482" y="99.702" fill="#8759F2" transform="rotate(-45 40.4819 99.7021)"/><rect width="122" height="2" x="46.846" y="106.066" fill="#8759F2" transform="rotate(-45 46.8457 106.066)"/><rect width="122" height="2" x="52.503" y="111.723" fill="#8759F2" transform="rotate(-45 52.5027 111.723)"/><rect width="122" height="2" x="58.867" y="118.087" fill="#8759F2" transform="rotate(-45 58.8667 118.087)"/><rect width="122" height="2" x="64.523" y="123.744" fill="#8759F2" transform="rotate(-45 64.5234 123.744)"/><rect width="122" height="2" x="70.888" y="130.108" fill="#8759F2" transform="rotate(-45 70.8875 130.108)"/><rect width="122" height="2" x="76.544" y="135.764" fill="#8759F2" transform="rotate(-45 76.5442 135.764)"/><rect width="122" height="2" x="82.908" y="142.128" fill="#8759F2" transform="rotate(-45 82.9082 142.128)"/><rect width="122" height="2" x="88.565" y="147.785" fill="#8759F2" transform="rotate(-45 88.5652 147.785)"/></g><circle cx="101.646" cy="70.857" r="56.5" stroke="#8000FF" stroke-width="5"/><path stroke="#8000FF" stroke-width="5" d="M129.718 25.967C157.655 15.3474 179.243 13.1037 184.307 21.8764C191.901 35.0295 159.478 67.9659 111.888 95.4421C64.2978 122.918 19.5623 134.529 11.9684 121.376C6.83735 112.489 19.976 94.5698 43.7184 75.4057"/><circle cx="174" cy="47.147" r="11" fill="#8759F2"/></svg>